<svg preserveAspectRatio="none" width="100%" height="100%" overflow="visible" style="display: block;" viewBox="0 0 761.714 99.5186" fill="none" xmlns="http://www.w3.org/2000/svg">
<g id="Group 27">
<path id="Vector" d="M200.955 40.1909H192.707L176.585 12.3214V40.1909H168.898V0.957031H177.549L193.269 28.3475V0.957031H200.955V40.1909Z" fill="var(--fill-0, white)"/>
<path id="Vector_2" d="M223.934 41.1417C218.37 41.1417 214.116 39.6302 211.177 36.6043C207.232 32.8952 205.262 27.5507 205.262 20.5678C205.262 13.4459 207.232 8.10137 211.177 4.53133C214.116 1.51145 218.37 0 223.934 0C229.498 0 233.751 1.51145 236.691 4.53737C240.617 8.10742 242.582 13.4519 242.582 20.5739C242.582 27.5537 240.617 32.8982 236.691 36.6103C233.751 39.6332 229.498 41.1477 223.934 41.1477V41.1417ZM231.62 30.6976C233.503 28.3246 234.447 24.948 234.447 20.5708C234.447 16.2118 233.5 12.8383 231.608 10.4562C229.716 8.07417 227.158 6.88314 223.937 6.88314C220.716 6.88314 218.143 8.07114 216.223 10.4441C214.304 12.8171 213.344 16.1937 213.344 20.5708C213.344 24.948 214.304 28.3246 216.223 30.6976C218.143 33.0705 220.713 34.2585 223.937 34.2585C227.158 34.2585 229.722 33.0705 231.623 30.6976H231.62Z" fill="var(--fill-0, white)"/>
<path id="Vector_3" d="M265.082 41.1417C259.518 41.1417 255.265 39.6302 252.325 36.6043C248.381 32.8952 246.41 27.5507 246.41 20.5678C246.41 13.4459 248.381 8.10137 252.325 4.53133C255.265 1.51145 259.518 0 265.082 0C270.646 0 274.9 1.51145 277.839 4.53737C281.765 8.10742 283.73 13.4519 283.73 20.5739C283.73 27.5537 281.765 32.8982 277.839 36.6103C274.9 39.6332 270.646 41.1477 265.082 41.1477V41.1417ZM272.765 30.6976C274.648 28.3246 275.593 24.948 275.593 20.5708C275.593 16.2118 274.645 12.8383 272.753 10.4562C270.861 8.07417 268.303 6.88314 265.082 6.88314C261.861 6.88314 259.288 8.07114 257.369 10.4441C255.45 12.8171 254.49 16.1937 254.49 20.5708C254.49 24.948 255.45 28.3246 257.369 30.6976C259.288 33.0705 261.858 34.2585 265.082 34.2585C268.303 34.2585 270.867 33.0705 272.768 30.6976H272.765Z" fill="var(--fill-0, white)"/>
<path id="Vector_4" d="M305.75 41.1417C300.186 41.1417 295.933 39.6302 292.993 36.6043C289.049 32.8952 287.078 27.5507 287.078 20.5678C287.078 13.4459 289.049 8.10137 292.993 4.53133C295.936 1.51145 300.186 0 305.75 0C311.314 0 315.568 1.51145 318.507 4.53737C322.433 8.10742 324.398 13.4519 324.398 20.5739C324.398 27.5537 322.433 32.8982 318.507 36.6103C315.568 39.6332 311.314 41.1477 305.75 41.1477V41.1417ZM313.436 30.6976C315.319 28.3246 316.264 24.948 316.264 20.5708C316.264 16.2118 315.316 12.8383 313.424 10.4562C311.532 8.07417 308.974 6.88314 305.753 6.88314C302.532 6.88314 299.959 8.07114 298.04 10.4441C296.121 12.8171 295.161 16.1937 295.161 20.5708C295.161 24.948 296.121 28.3246 298.04 30.6976C299.959 33.0705 302.529 34.2585 305.753 34.2585C308.974 34.2585 311.538 33.0705 313.439 30.6976H313.436Z" fill="var(--fill-0, white)"/>
<path id="Vector_5" d="M360.762 40.1909H352.637L336.755 12.3214V40.1909H329.184V0.957031H337.705L353.19 28.3475V0.957031H360.762V40.1909Z" fill="var(--fill-0, white)"/>
<path id="Vector_6" d="M407.43 23.0482H388.72V33.1373H410.042V40.1909H380.855V0.957031H409.101V7.90381H388.72V16.2357H407.43V23.0512V23.0482Z" fill="var(--fill-0, white)"/>
<path id="Vector_7" d="M429.459 34.5026C431.385 34.5026 432.951 34.2903 434.151 33.8687C436.43 33.0589 437.573 31.5485 437.573 29.3436C437.573 28.0576 437.008 27.0598 435.877 26.3531C434.747 25.6646 432.969 25.055 430.547 24.5273L426.41 23.6022C422.344 22.6863 419.533 21.6885 417.98 20.6118C415.345 18.8132 414.029 15.9987 414.029 12.1711C414.029 8.6772 415.302 5.77772 417.846 3.46663C420.39 1.15554 424.131 0 429.06 0C433.179 0 436.692 1.08882 439.6 3.26646C442.509 5.4441 444.031 8.60744 444.174 12.7535H436.324C436.181 10.409 435.157 8.74089 433.248 7.75216C431.975 7.10008 430.395 6.77252 428.501 6.77252C426.398 6.77252 424.718 7.19713 423.462 8.04332C422.207 8.88951 421.581 10.0723 421.581 11.5888C421.581 12.984 422.198 14.0243 423.438 14.7127C424.234 15.1707 425.93 15.7106 428.529 16.3262L435.263 17.9398C438.214 18.6464 440.442 19.5897 441.946 20.7725C444.281 22.6074 445.448 25.2612 445.448 28.737C445.448 32.3007 444.083 35.2608 441.351 37.6144C438.619 39.9679 434.762 41.1477 429.778 41.1477C424.687 41.1477 420.685 39.9891 417.767 37.6689C414.849 35.3488 413.391 32.1611 413.391 28.1031H421.186C421.432 29.8834 421.918 31.2179 422.645 32.0975C423.97 33.7019 426.24 34.5056 429.459 34.5056V34.5026Z" fill="var(--fill-0, white)"/>
<path id="Vector_8" d="M477.985 0.957031V7.90381H466.321V40.1909H458.122V7.90381H446.406V0.957031H477.982H477.985Z" fill="var(--fill-0, white)"/>
<path id="Vector_9" d="M474.637 32.0586H482.771V40.1924H474.637V32.0586Z" fill="var(--fill-0, white)"/>
<path id="Vector_10" d="M503.771 9.46699C502.869 8.38469 501.581 7.84506 499.901 7.84506C497.605 7.84506 496.041 8.70481 495.212 10.4243C494.735 11.4182 494.452 12.9944 494.364 15.159H487.023C487.147 11.8785 487.74 9.22614 488.8 7.20483C490.813 3.35734 494.391 1.43359 499.531 1.43359C503.595 1.43359 506.826 2.56467 509.229 4.82378C511.631 7.08593 512.831 10.0767 512.831 13.8023C512.831 16.6589 511.984 19.1924 510.289 21.4088C509.174 22.8814 507.349 24.5216 504.803 26.3295L501.781 28.4849C499.889 29.8325 498.598 30.8081 497.9 31.4117C497.201 32.0154 496.615 32.7135 496.138 33.5123H512.913V40.189H486.598C486.668 37.4238 487.26 34.8964 488.374 32.6068C489.453 30.0367 491.995 27.3142 496.007 24.4423C499.488 21.9424 501.739 20.1497 502.765 19.0705C504.339 17.3876 505.125 15.5431 505.125 13.537C505.125 11.906 504.676 10.5493 503.774 9.46699H503.771Z" fill="var(--fill-0, white)"/>
<path id="Vector_11" d="M528.703 41.1459C523.756 41.1459 520.286 39.4299 518.293 35.9948C516.3 32.5627 515.305 27.6671 515.305 21.3141C515.305 14.9611 516.3 10.0594 518.293 6.6091C520.286 3.15876 523.753 1.43359 528.703 1.43359C533.65 1.43359 537.124 3.15876 539.126 6.6091C541.11 10.0594 542.099 14.9611 542.099 21.3141C542.099 27.6671 541.104 32.5596 539.111 35.9948C537.118 39.4268 533.647 41.1459 528.7 41.1459H528.703ZM533.178 31.4552C533.875 29.1184 534.222 25.7381 534.222 21.3141C534.222 16.6771 533.868 13.2451 533.162 11.0148C532.456 8.78457 530.97 7.67097 528.7 7.67097C526.431 7.67097 524.932 8.78457 524.198 11.0148C523.464 13.2451 523.099 16.6771 523.099 21.3141C523.099 25.7381 523.464 29.1245 524.198 31.4673C524.929 33.8132 526.431 34.9846 528.7 34.9846C530.97 34.9846 532.459 33.8071 533.174 31.4552H533.178Z" fill="var(--fill-0, white)"/>
<path id="Vector_12" d="M561.185 9.46699C560.283 8.38469 558.995 7.84506 557.315 7.84506C555.019 7.84506 553.455 8.70481 552.626 10.4243C552.149 11.4182 551.866 12.9944 551.778 15.159H544.437C544.561 11.8785 545.154 9.22614 546.214 7.20483C548.228 3.35734 551.806 1.43359 556.945 1.43359C561.009 1.43359 564.24 2.56467 566.643 4.82378C569.045 7.08593 570.245 10.0767 570.245 13.8023C570.245 16.6589 569.398 19.1924 567.703 21.4088C566.588 22.8814 564.763 24.5216 562.217 26.3295L559.195 28.4849C557.303 29.8325 556.012 30.8081 555.314 31.4117C554.615 32.0154 554.029 32.7135 553.552 33.5123H570.327V40.189H544.012C544.082 37.4238 544.674 34.8964 545.789 32.6068C546.867 30.0367 549.409 27.3142 553.421 24.4423C556.902 21.9424 559.153 20.1497 560.179 19.0705C561.753 17.3876 562.539 15.5431 562.539 13.537C562.539 11.906 562.09 10.5493 561.188 9.46699H561.185Z" fill="var(--fill-0, white)"/>
<path id="Vector_13" d="M599.513 25.9787V31.9036H595.191V40.191H587.841V31.9036H572.719V25.2906L586.76 1.91406H595.191V25.9787H599.513ZM578.278 25.9787H587.841V9.34902L578.278 25.9787Z" fill="var(--fill-0, white)"/>
<path id="Vector_14" d="M5.35997 67.3641C3.75228 67.3275 2.45653 66.8177 1.47572 65.8378C0.491906 64.8579 0 63.5483 0 61.9121C0 60.2759 0.491906 58.9571 1.47272 57.9589C2.45353 56.9577 3.74928 56.4601 5.35697 56.4601C6.96466 56.4601 8.26041 56.9607 9.24123 57.9589C10.222 58.9602 10.7139 60.2759 10.7139 61.9121C10.7139 63.5483 10.222 64.8671 9.24123 65.8653C8.25741 66.8666 6.96466 67.3641 5.35697 67.3641H5.35997ZM5.35997 83.7294C3.75228 83.6927 2.45653 83.1829 1.47572 82.203C0.491906 81.2201 0 79.9105 0 78.2743C0 76.6381 0.491906 75.3193 1.47272 74.3211C2.45353 73.3198 3.74928 72.8223 5.35697 72.8223C6.96466 72.8223 8.26041 73.3229 9.24123 74.3211C10.222 75.3224 10.7139 76.6381 10.7139 78.2743C10.7139 79.9105 10.222 81.2292 9.24123 82.2275C8.25741 83.2287 6.96466 83.7263 5.35697 83.7263L5.35997 83.7294ZM21.4369 67.3641C19.8292 67.3275 18.5334 66.8177 17.5526 65.8378C16.5688 64.8549 16.0799 63.5483 16.0799 61.9091C16.0799 60.2728 16.5718 58.9541 17.5526 57.9559C18.5364 56.9546 19.8292 56.457 21.4369 56.457C23.0446 56.457 24.3403 56.9577 25.3211 57.9559C26.305 58.9571 26.7939 60.2728 26.7939 61.9091C26.7939 63.5453 26.302 64.864 25.3211 65.8622C24.3373 66.8635 23.0446 67.3611 21.4369 67.3611V67.3641Z" fill="var(--fill-0, white)"/>
<path id="Vector_15" d="M43.5524 65.4478C42.5858 64.4558 42.1055 63.1372 42.1055 61.4828C42.1055 59.8315 42.5887 58.5006 43.5524 57.4931C44.516 56.4826 45.789 55.9805 47.3685 55.9805C48.9481 55.9805 50.2211 56.4857 51.1847 57.4931C52.1483 58.5036 52.6316 59.8315 52.6316 61.4828C52.6316 63.1341 52.1483 64.465 51.1847 65.4724C50.2182 66.4829 48.9481 66.9851 47.3685 66.9851C45.789 66.9481 44.516 66.4336 43.5524 65.4447V65.4478Z" fill="var(--fill-0, white)"/>
<path id="Vector_16" d="M89.1831 83.4362C87.5467 83.4 86.2278 82.8956 85.2295 81.9261C84.2281 80.9536 83.7305 79.661 83.7305 78.0392C83.7305 76.4203 84.2312 75.1156 85.2295 74.128C86.2278 73.1374 87.5467 72.6451 89.1831 72.6451C90.8195 72.6451 92.1384 73.1404 93.1367 74.128C94.135 75.1187 94.6357 76.4203 94.6357 78.0392C94.6357 79.658 94.135 80.9627 93.1367 81.9503C92.1353 82.9409 90.8195 83.4332 89.1831 83.4332V83.4362ZM89.1831 99.5186C87.5467 99.4824 86.2278 98.978 85.2295 98.0085C84.2281 97.036 83.7305 95.7434 83.7305 94.1246C83.7305 92.5058 84.2312 91.2282 85.2295 90.292C86.2278 89.3557 87.5467 88.8876 89.1831 88.8876C90.8195 88.8876 92.1384 89.3557 93.1367 90.292C94.135 91.2282 94.6357 92.5058 94.6357 94.1246C94.6357 95.7434 94.135 97.0481 93.1367 98.0357C92.1353 99.0263 90.8195 99.5186 89.1831 99.5186ZM105.55 67.2481C103.914 67.2119 102.595 66.7075 101.597 65.738C100.595 64.7655 100.098 63.4729 100.098 61.8511C100.098 60.2322 100.598 58.9275 101.597 57.9399C102.595 56.9493 103.914 56.457 105.55 56.457C107.187 56.457 108.505 56.9523 109.504 57.9399C110.502 58.9306 111.003 60.2322 111.003 61.8511C111.003 63.4699 110.502 64.7746 109.504 65.7622C108.502 66.7528 107.187 67.2451 105.55 67.2451V67.2481Z" fill="var(--fill-0, white)"/>
<path id="Vector_17" d="M131.289 67.3654C129.653 67.3287 128.334 66.8189 127.335 65.8389C126.334 64.8558 125.836 63.5491 125.836 61.9097C125.836 60.2733 126.337 58.9544 127.335 57.956C128.334 56.9547 129.653 56.457 131.289 56.457C132.926 56.457 134.245 56.9577 135.243 57.956C136.242 58.9574 136.742 60.2733 136.742 61.9097C136.742 63.5461 136.242 64.865 135.243 65.8633C134.242 66.8647 132.926 67.3623 131.289 67.3623V67.3654ZM131.289 83.7294C129.653 83.6927 128.334 83.1829 127.335 82.2029C126.334 81.2198 125.836 79.9131 125.836 78.2737C125.836 76.6373 126.337 75.3184 127.335 74.3201C128.334 73.3187 129.653 72.821 131.289 72.821C132.926 72.821 134.245 73.3217 135.243 74.3201C136.242 75.3214 136.742 76.6373 136.742 78.2737C136.742 79.9101 136.242 81.229 135.243 82.2273C134.242 83.2287 132.926 83.7263 131.289 83.7263V83.7294ZM147.655 83.7294C146.018 83.6927 144.699 83.1829 143.701 82.2029C142.699 81.2198 142.202 79.9131 142.202 78.2737C142.202 76.6373 142.703 75.3184 143.701 74.3201C144.702 73.3187 146.018 72.821 147.655 72.821C149.292 72.821 150.611 73.3217 151.609 74.3201C152.611 75.3214 153.108 76.6373 153.108 78.2737C153.108 79.9101 152.608 81.229 151.609 82.2273C150.608 83.2287 149.292 83.7263 147.655 83.7263V83.7294Z" fill="var(--fill-0, white)"/>
<path id="Vector_18" d="M173.776 83.2509C172.168 83.2149 170.872 82.714 169.891 81.7512C168.907 80.7854 168.418 79.5016 168.418 77.8909C168.418 76.2832 168.91 74.9875 169.891 74.0067C170.875 73.0229 172.168 72.534 173.776 72.534C175.383 72.534 176.679 73.0259 177.66 74.0067C178.644 74.9905 179.136 76.2832 179.136 77.8909C179.136 79.4986 178.644 80.7944 177.66 81.7752C176.676 82.759 175.383 83.2479 173.776 83.2479V83.2509ZM189.854 67.174C188.246 67.138 186.95 66.6371 185.97 65.6743C184.986 64.7084 184.497 63.4247 184.497 61.814C184.497 60.2063 184.989 58.9106 185.97 57.9298C186.953 56.9459 188.246 56.457 189.854 56.457C191.462 56.457 192.758 56.9489 193.739 57.9298C194.723 58.9136 195.212 60.2063 195.212 61.814C195.212 63.4217 194.72 64.7174 193.739 65.6983C192.755 66.6821 191.462 67.171 189.854 67.171V67.174Z" fill="var(--fill-0, white)"/>
<path id="Vector_19" d="M211.52 65.7387C210.536 64.7661 210.047 63.4734 210.047 61.8514C210.047 60.2325 210.539 58.9277 211.52 57.94C212.5 56.9494 213.796 56.457 215.404 56.457C217.012 56.457 218.307 56.9524 219.288 57.94C220.269 58.9307 220.761 60.2325 220.761 61.8514C220.761 63.4704 220.269 64.7752 219.288 65.7628C218.304 66.7535 217.012 67.2458 215.404 67.2458C213.796 67.2096 212.5 66.7052 211.52 65.7356V65.7387ZM211.52 98.0114C210.536 97.0389 210.047 95.7461 210.047 94.1242C210.047 92.5053 210.539 91.2276 211.52 90.2913C212.5 89.355 213.796 88.8868 215.404 88.8868C217.012 88.8868 218.307 89.355 219.288 90.2913C220.269 91.2276 220.761 92.5053 220.761 94.1242C220.761 95.7431 220.269 97.0479 219.288 98.0356C218.304 99.0263 217.012 99.5186 215.404 99.5186C213.796 99.4823 212.5 98.9779 211.52 98.0084V98.0114ZM227.6 81.9309C226.616 80.9584 226.127 79.6656 226.127 78.0437C226.127 76.4248 226.619 75.12 227.6 74.1323C228.58 73.1416 229.876 72.6493 231.484 72.6493C233.091 72.6493 234.387 73.1446 235.368 74.1323C236.349 75.123 236.841 76.4248 236.841 78.0437C236.841 79.6626 236.349 80.9674 235.368 81.9551C234.384 82.9458 233.091 83.4381 231.484 83.4381C229.876 83.4018 228.58 82.8974 227.6 81.9279V81.9309Z" fill="var(--fill-0, white)"/>
<path id="Vector_20" d="M253.171 65.7387C252.17 64.7661 251.672 63.4734 251.672 61.8514C251.672 60.2325 252.173 58.9277 253.171 57.94C254.169 56.9494 255.489 56.457 257.125 56.457C258.762 56.457 260.081 56.9524 261.079 57.94C262.078 58.9307 262.578 60.2325 262.578 61.8514C262.578 63.4704 262.078 64.7752 261.079 65.7628C260.078 66.7535 258.762 67.2458 257.125 67.2458C255.489 67.2096 254.169 66.7052 253.171 65.7356V65.7387ZM253.171 98.0114C252.17 97.0389 251.672 95.7461 251.672 94.1242C251.672 92.5053 252.173 91.2277 253.171 90.2913C254.169 89.355 255.489 88.8869 257.125 88.8869C258.762 88.8869 260.081 89.355 261.079 90.2913C262.078 91.2277 262.578 92.5053 262.578 94.1242C262.578 95.7431 262.078 97.0479 261.079 98.0356C260.078 99.0263 258.762 99.5186 257.125 99.5186C255.489 99.4823 254.169 98.9779 253.171 98.0084V98.0114ZM269.537 65.7387C268.535 64.7661 268.038 63.4734 268.038 61.8514C268.038 60.2325 268.538 58.9277 269.537 57.94C270.538 56.9494 271.854 56.457 273.491 56.457C275.128 56.457 276.447 56.9524 277.445 57.94C278.446 58.9307 278.944 60.2325 278.944 61.8514C278.944 63.4704 278.443 64.7752 277.445 65.7628C276.444 66.7535 275.128 67.2458 273.491 67.2458C271.854 67.2096 270.535 66.7052 269.537 65.7356V65.7387ZM269.537 81.9279C268.535 80.9553 268.038 79.6626 268.038 78.0407C268.038 76.4217 268.538 75.1169 269.537 74.1293C270.538 73.1386 271.854 72.6463 273.491 72.6463C275.128 72.6463 276.447 73.1416 277.445 74.1293C278.446 75.12 278.944 76.4217 278.944 78.0407C278.944 79.6596 278.443 80.9644 277.445 81.9521C276.444 82.9427 275.128 83.4351 273.491 83.4351C271.854 83.3988 270.535 82.8944 269.537 81.9249V81.9279Z" fill="var(--fill-0, white)"/>
<path id="Vector_21" d="M319.805 67.3641C318.168 67.3275 316.849 66.8177 315.851 65.8378C314.849 64.8549 314.352 63.5483 314.352 61.9091C314.352 60.2728 314.852 58.9541 315.851 57.9559C316.849 56.9546 318.168 56.457 319.805 56.457C321.441 56.457 322.76 56.9577 323.759 57.9559C324.757 58.9571 325.258 60.2728 325.258 61.9091C325.258 63.5453 324.757 64.864 323.759 65.8622C322.757 66.8635 321.441 67.3611 319.805 67.3611V67.3641ZM336.171 83.7294C334.534 83.6927 333.215 83.1829 332.217 82.203C331.215 81.2201 330.717 79.9135 330.717 78.2743C330.717 76.6381 331.218 75.3193 332.217 74.3211C333.218 73.3198 334.534 72.8223 336.171 72.8223C337.807 72.8223 339.126 73.3229 340.125 74.3211C341.126 75.3224 341.624 76.6381 341.624 78.2743C341.624 79.9105 341.123 81.2292 340.125 82.2274C339.123 83.2287 337.807 83.7263 336.171 83.7263V83.7294Z" fill="var(--fill-0, white)"/>
<path id="Vector_22" d="M357.926 65.7387C356.942 64.7661 356.453 63.4734 356.453 61.8514C356.453 60.2325 356.945 58.9277 357.926 57.94C358.907 56.9494 360.203 56.457 361.811 56.457C363.419 56.457 364.714 56.9524 365.695 57.94C366.676 58.9307 367.168 60.2325 367.168 61.8514C367.168 63.4704 366.676 64.7752 365.695 65.7628C364.711 66.7535 363.419 67.2458 361.811 67.2458C360.203 67.2096 358.907 66.7052 357.926 65.7356V65.7387ZM357.926 98.0114C356.942 97.0389 356.453 95.7461 356.453 94.1242C356.453 92.5053 356.945 91.2277 357.926 90.2913C358.907 89.355 360.203 88.8869 361.811 88.8869C363.419 88.8869 364.714 89.355 365.695 90.2913C366.676 91.2277 367.168 92.5053 367.168 94.1242C367.168 95.7431 366.676 97.0479 365.695 98.0356C364.711 99.0263 363.419 99.5186 361.811 99.5186C360.203 99.4823 358.907 98.9779 357.926 98.0084V98.0114ZM374.005 65.7387C373.021 64.7661 372.532 63.4734 372.532 61.8514C372.532 60.2325 373.024 58.9277 374.005 57.94C374.989 56.9494 376.282 56.457 377.889 56.457C379.497 56.457 380.793 56.9524 381.774 57.94C382.758 58.9307 383.247 60.2325 383.247 61.8514C383.247 63.4704 382.755 64.7752 381.774 65.7628C380.79 66.7535 379.497 67.2458 377.889 67.2458C376.282 67.2096 374.986 66.7052 374.005 65.7356V65.7387ZM374.005 81.9279C373.021 80.9553 372.532 79.6626 372.532 78.0407C372.532 76.4217 373.024 75.1169 374.005 74.1293C374.989 73.1386 376.282 72.6463 377.889 72.6463C379.497 72.6463 380.793 73.1416 381.774 74.1293C382.758 75.12 383.247 76.4217 383.247 78.0407C383.247 79.6596 382.755 80.9644 381.774 81.9521C380.79 82.9427 379.497 83.4351 377.889 83.4351C376.282 83.3988 374.986 82.8944 374.005 81.9249V81.9279Z" fill="var(--fill-0, white)"/>
<path id="Vector_23" d="M403.916 67.3654C402.308 67.3287 401.012 66.8189 400.031 65.8389C399.048 64.8558 398.559 63.5491 398.559 61.9097C398.559 60.2733 399.051 58.9544 400.031 57.956C401.012 56.9547 402.308 56.457 403.916 56.457C405.524 56.457 406.82 56.9577 407.801 57.956C408.782 58.9574 409.274 60.2733 409.274 61.9097C409.274 63.5461 408.782 64.865 407.801 65.8633C406.817 66.8647 405.524 67.3623 403.916 67.3623V67.3654ZM403.916 83.7294C402.308 83.6927 401.012 83.1829 400.031 82.2029C399.048 81.2198 398.559 79.9131 398.559 78.2737C398.559 76.6342 399.051 75.3184 400.031 74.3201C401.012 73.3187 402.308 72.821 403.916 72.821C405.524 72.821 406.82 73.3217 407.801 74.3201C408.782 75.3214 409.274 76.6373 409.274 78.2737C409.274 79.9101 408.782 81.229 407.801 82.2273C406.817 83.2287 405.524 83.7263 403.916 83.7263V83.7294ZM419.995 67.3654C418.387 67.3287 417.091 66.8189 416.11 65.8389C415.126 64.8558 414.637 63.5491 414.637 61.9097C414.637 60.2733 415.129 58.9544 416.11 57.956C417.094 56.9547 418.387 56.457 419.995 56.457C421.603 56.457 422.899 56.9577 423.88 57.956C424.864 58.9574 425.352 60.2733 425.352 61.9097C425.352 63.5461 424.861 64.865 423.88 65.8633C422.896 66.8647 421.603 67.3623 419.995 67.3623V67.3654ZM419.995 83.7294C418.387 83.6927 417.091 83.1829 416.11 82.2029C415.126 81.2198 414.637 79.9131 414.637 78.2737C414.637 76.6373 415.129 75.3184 416.11 74.3201C417.094 73.3187 418.387 72.821 419.995 72.821C421.603 72.821 422.899 73.3217 423.88 74.3201C424.864 75.3214 425.352 76.6373 425.352 78.2737C425.352 79.9101 424.861 81.229 423.88 82.2273C422.896 83.2287 421.603 83.7263 419.995 83.7263V83.7294Z" fill="var(--fill-0, white)"/>
<path id="Vector_24" d="M446.022 83.2509C444.414 83.2149 443.118 82.714 442.137 81.7512C441.153 80.7854 440.664 79.5016 440.664 77.8909C440.664 76.2832 441.156 74.9875 442.137 74.0067C443.121 73.0229 444.414 72.534 446.022 72.534C447.63 72.534 448.925 73.0259 449.906 74.0067C450.89 74.9905 451.382 76.2832 451.382 77.8909C451.382 79.4986 450.89 80.7944 449.906 81.7752C448.922 82.759 447.63 83.2479 446.022 83.2479V83.2509ZM462.1 67.174C460.492 67.138 459.197 66.6371 458.216 65.6743C457.232 64.7084 456.743 63.4247 456.743 61.814C456.743 60.2063 457.235 58.9106 458.216 57.9298C459.2 56.9459 460.492 56.457 462.1 56.457C463.708 56.457 465.004 56.9489 465.985 57.9298C466.969 58.9136 467.458 60.2063 467.458 61.814C467.458 63.4217 466.966 64.7174 465.985 65.6983C465.001 66.6821 463.708 67.171 462.1 67.171V67.174Z" fill="var(--fill-0, white)"/>
<path id="Vector_25" d="M483.788 65.7387C482.787 64.7661 482.289 63.4734 482.289 61.8514C482.289 60.2295 482.79 58.9277 483.788 57.94C484.787 56.9494 486.106 56.457 487.742 56.457C489.379 56.457 490.698 56.9524 491.696 57.94C492.695 58.9307 493.196 60.2325 493.196 61.8514C493.196 63.4704 492.695 64.7752 491.696 65.7628C490.695 66.7535 489.379 67.2458 487.742 67.2458C486.106 67.2096 484.787 66.7052 483.788 65.7356V65.7387ZM483.788 98.0114C482.787 97.0389 482.289 95.7461 482.289 94.1242C482.289 92.5053 482.79 91.2277 483.788 90.2913C484.787 89.355 486.106 88.8869 487.742 88.8869C489.379 88.8869 490.698 89.355 491.696 90.2913C492.695 91.2277 493.196 92.5053 493.196 94.1242C493.196 95.7431 492.695 97.0479 491.696 98.0356C490.695 99.0263 489.379 99.5186 487.742 99.5186C486.106 99.4823 484.787 98.9779 483.788 98.0084V98.0114ZM500.154 65.7387C499.153 64.7661 498.655 63.4734 498.655 61.8514C498.655 60.2325 499.156 58.9277 500.154 57.94C501.156 56.9494 502.472 56.457 504.108 56.457C505.745 56.457 507.064 56.9524 508.062 57.94C509.064 58.9307 509.561 60.2325 509.561 61.8514C509.561 63.4704 509.061 64.7752 508.062 65.7628C507.061 66.7535 505.745 67.2458 504.108 67.2458C502.472 67.2096 501.153 66.7052 500.154 65.7356V65.7387ZM500.154 81.9279C499.153 80.9553 498.655 79.6626 498.655 78.0407C498.655 76.4217 499.156 75.1169 500.154 74.1293C501.156 73.1386 502.472 72.6463 504.108 72.6463C505.745 72.6463 507.064 73.1416 508.062 74.1293C509.064 75.12 509.561 76.4217 509.561 78.0407C509.561 79.6596 509.061 80.9644 508.062 81.9521C507.061 82.9427 505.745 83.4351 504.108 83.4351C502.472 83.3988 501.153 82.8944 500.154 81.9249V81.9279Z" fill="var(--fill-0, white)"/>
<path id="Vector_26" d="M529.848 67.3641C528.211 67.3275 526.892 66.8177 525.894 65.8378C524.892 64.8549 524.395 63.5483 524.395 61.9091C524.395 60.2728 524.895 58.9541 525.894 57.9559C526.892 56.9546 528.211 56.457 529.848 56.457C531.484 56.457 532.803 56.9577 533.802 57.9559C534.8 58.9571 535.301 60.2728 535.301 61.9091C535.301 63.5453 534.8 64.864 533.802 65.8622C532.8 66.8635 531.484 67.3611 529.848 67.3611V67.3641ZM546.214 83.7294C544.577 83.6927 543.258 83.1829 542.26 82.203C541.258 81.2201 540.76 79.9135 540.76 78.2743C540.76 76.6381 541.261 75.3193 542.26 74.3211C543.261 73.3198 544.577 72.8223 546.214 72.8223C547.85 72.8223 549.169 73.3229 550.168 74.3211C551.169 75.3224 551.667 76.6381 551.667 78.2743C551.667 79.9105 551.166 81.2292 550.168 82.2274C549.166 83.2287 547.85 83.7263 546.214 83.7263V83.7294Z" fill="var(--fill-0, white)"/>
<path id="Vector_27" d="M571.857 67.3641C570.249 67.3275 568.954 66.8177 567.973 65.8378C566.989 64.8549 566.5 63.5483 566.5 61.9091C566.5 60.2698 566.992 58.9541 567.973 57.9559C568.954 56.9546 570.249 56.457 571.857 56.457C573.465 56.457 574.76 56.9577 575.741 57.9559C576.722 58.9571 577.214 60.2728 577.214 61.9091C577.214 63.5453 576.722 64.864 575.741 65.8622C574.757 66.8635 573.465 67.3611 571.857 67.3611V67.3641ZM587.937 83.7294C586.329 83.6927 585.033 83.1829 584.053 82.203C583.069 81.2201 582.58 79.9135 582.58 78.2743C582.58 76.6381 583.072 75.3193 584.053 74.3211C585.036 73.3198 586.329 72.8223 587.937 72.8223C589.545 72.8223 590.84 73.3229 591.821 74.3211C592.805 75.3224 593.294 76.6381 593.294 78.2743C593.294 79.9105 592.802 81.2292 591.821 82.2274C590.837 83.2287 589.545 83.7263 587.937 83.7263V83.7294Z" fill="var(--fill-0, white)"/>
<path id="Vector_28" d="M613.578 67.2746C611.941 67.2383 610.622 66.7327 609.624 65.7608C608.623 64.786 608.125 63.4901 608.125 61.8643C608.125 60.2415 608.626 58.9336 609.624 57.9436C610.622 56.9505 611.941 56.457 613.578 56.457C615.214 56.457 616.533 56.9536 617.531 57.9436C618.53 58.9366 619.03 60.2415 619.03 61.8643C619.03 63.4871 618.53 64.795 617.531 65.7851C616.53 66.7781 615.214 67.2716 613.578 67.2716V67.2746ZM613.578 83.5056C611.941 83.4693 610.622 82.9637 609.624 81.9918C608.623 81.0169 608.125 79.7211 608.125 78.0953C608.125 76.4725 608.626 75.1646 609.624 74.1746C610.622 73.1815 611.941 72.688 613.578 72.688C615.214 72.688 616.533 73.1845 617.531 74.1746C618.53 75.1676 619.03 76.4725 619.03 78.0953C619.03 79.7181 618.53 81.026 617.531 82.016C616.53 83.0091 615.214 83.5026 613.578 83.5026V83.5056ZM613.578 99.5186C611.941 99.4823 610.622 98.9767 609.624 98.0048C608.623 97.0299 608.125 95.7341 608.125 94.1083C608.125 92.4855 608.626 91.223 609.624 90.3207C610.622 89.4185 611.941 88.9674 613.578 88.9674C615.214 88.9674 616.533 89.4185 617.531 90.3207C618.53 91.223 619.03 92.4855 619.03 94.1083C619.03 95.7311 618.53 97.039 617.531 98.029C616.53 99.0221 615.214 99.5156 613.578 99.5156V99.5186ZM629.945 83.5056C628.308 83.4693 626.989 82.9637 625.991 81.9918C624.99 81.0169 624.492 79.7211 624.492 78.0953C624.492 76.4725 624.993 75.1646 625.991 74.1746C626.993 73.1815 628.308 72.688 629.945 72.688C631.581 72.688 632.9 73.1845 633.898 74.1746C634.9 75.1676 635.397 76.4725 635.397 78.0953C635.397 79.7181 634.897 81.026 633.898 82.016C632.897 83.0091 631.581 83.5026 629.945 83.5026V83.5056Z" fill="var(--fill-0, white)"/>
<path id="Vector_29" d="M656.065 83.2509C654.457 83.2149 653.161 82.714 652.18 81.7512C651.196 80.7854 650.707 79.5016 650.707 77.8909C650.707 76.2832 651.199 74.9875 652.18 74.0067C653.164 73.0229 654.457 72.534 656.065 72.534C657.673 72.534 658.968 73.0259 659.949 74.0067C660.933 74.9905 661.425 76.2832 661.425 77.8909C661.425 79.4986 660.933 80.7944 659.949 81.7752C658.965 82.759 657.673 83.2479 656.065 83.2479V83.2509ZM672.143 67.174C670.535 67.138 669.24 66.6371 668.259 65.6743C667.275 64.7084 666.786 63.4247 666.786 61.814C666.786 60.2063 667.278 58.9106 668.259 57.9298C669.243 56.9459 670.535 56.457 672.143 56.457C673.751 56.457 675.047 56.9489 676.028 57.9298C677.012 58.9136 677.501 60.2063 677.501 61.814C677.501 63.4217 677.009 64.7174 676.028 65.6983C675.044 66.6821 673.751 67.171 672.143 67.171V67.174Z" fill="var(--fill-0, white)"/>
<path id="Vector_30" d="M693.835 65.7387C692.834 64.7661 692.336 63.4734 692.336 61.8514C692.336 60.2295 692.837 58.9277 693.835 57.94C694.834 56.9494 696.153 56.457 697.789 56.457C699.426 56.457 700.745 56.9524 701.743 57.94C702.742 58.9307 703.242 60.2325 703.242 61.8514C703.242 63.4704 702.742 64.7752 701.743 65.7628C700.742 66.7535 699.426 67.2458 697.789 67.2458C696.153 67.2096 694.834 66.7052 693.835 65.7356V65.7387ZM693.835 98.0114C692.834 97.0389 692.336 95.7461 692.336 94.1242C692.336 92.5023 692.837 91.2277 693.835 90.2913C694.834 89.355 696.153 88.8869 697.789 88.8869C699.426 88.8869 700.745 89.355 701.743 90.2913C702.742 91.2277 703.242 92.5053 703.242 94.1242C703.242 95.7431 702.742 97.0479 701.743 98.0356C700.742 99.0263 699.426 99.5186 697.789 99.5186C696.153 99.4823 694.834 98.9779 693.835 98.0084V98.0114ZM710.201 65.7387C709.199 64.7661 708.702 63.4734 708.702 61.8514C708.702 60.2295 709.203 58.9277 710.201 57.94C711.202 56.9494 712.518 56.457 714.155 56.457C715.792 56.457 717.111 56.9524 718.109 57.94C719.111 58.9307 719.608 60.2325 719.608 61.8514C719.608 63.4704 719.108 64.7752 718.109 65.7628C717.108 66.7535 715.792 67.2458 714.155 67.2458C712.518 67.2096 711.199 66.7052 710.201 65.7356V65.7387ZM710.201 81.9279C709.199 80.9553 708.702 79.6626 708.702 78.0407C708.702 76.4217 709.203 75.1169 710.201 74.1293C711.202 73.1386 712.518 72.6463 714.155 72.6463C715.792 72.6463 717.111 73.1416 718.109 74.1293C719.111 75.12 719.608 76.4217 719.608 78.0407C719.608 79.6596 719.108 80.9644 718.109 81.9521C717.108 82.9427 715.792 83.4351 714.155 83.4351C712.518 83.3988 711.199 82.8944 710.201 81.9249V81.9279Z" fill="var(--fill-0, white)"/>
<path id="Vector_31" d="M739.895 67.3654C738.258 67.3287 736.939 66.8189 735.941 65.8389C734.939 64.8558 734.441 63.5491 734.441 61.9097C734.441 60.2733 734.942 58.9544 735.941 57.956C736.939 56.9547 738.258 56.457 739.895 56.457C741.531 56.457 742.85 56.9577 743.849 57.956C744.847 58.9574 745.348 60.2733 745.348 61.9097C745.348 63.5461 744.847 64.865 743.849 65.8633C742.847 66.8647 741.531 67.3623 739.895 67.3623V67.3654ZM739.895 83.7294C738.258 83.6927 736.939 83.1829 735.941 82.2029C734.939 81.2198 734.441 79.9131 734.441 78.2737C734.441 76.6373 734.942 75.3184 735.941 74.3201C736.939 73.3187 738.258 72.821 739.895 72.821C741.531 72.821 742.85 73.3217 743.849 74.3201C744.847 75.3214 745.348 76.6373 745.348 78.2737C745.348 79.9101 744.847 81.229 743.849 82.2273C742.847 83.2287 741.531 83.7263 739.895 83.7263V83.7294ZM756.26 67.3654C754.624 67.3287 753.305 66.8189 752.306 65.8389C751.305 64.8558 750.807 63.5491 750.807 61.9097C750.807 60.2733 751.308 58.9544 752.306 57.956C753.308 56.9547 754.624 56.457 756.26 56.457C757.897 56.457 759.216 56.9577 760.214 57.956C761.216 58.9574 761.714 60.2733 761.714 61.9097C761.714 63.5461 761.213 64.865 760.214 65.8633C759.213 66.8647 757.897 67.3623 756.26 67.3623V67.3654ZM756.26 83.7294C754.624 83.6927 753.305 83.1829 752.306 82.2029C751.305 81.2198 750.807 79.9131 750.807 78.2737C750.807 76.6373 751.308 75.3184 752.306 74.3201C753.308 73.3187 754.624 72.821 756.26 72.821C757.897 72.821 759.216 73.3217 760.214 74.3201C761.216 75.3214 761.714 76.6373 761.714 78.2737C761.714 79.9101 761.213 81.229 760.214 82.2273C759.213 83.2287 757.897 83.7263 756.26 83.7263V83.7294Z" fill="var(--fill-0, white)"/>
</g>
</svg>
